<?xml version="1.0" encoding="UTF-8"?>
<svg id="Calque_1" data-name="Calque 1" xmlns="http://www.w3.org/2000/svg" viewBox="0 0 841.89 595.28">
  <defs>
    <style>
      .cls-1 {
        fill: #1d1d1b;
        stroke-width: 0px;
      }
    </style>
  </defs>
  <path class="cls-1" d="m511.54,263.76v141.35h-182.28c-5.09-2.91-8-7.82-8-13.1,0-8.73,6.55-12.55,12.37-12.55,16.74,0,5.82,16.55,50.75,16.55h76.22v-53.85c-81.5,18.92-126.07-15.46-126.07-71.31,0-40.93,32.74-79.5,92.41-79.5,53.85,0,84.59,26.38,84.59,72.4Zm-50.94,71.13v-88.77c0-30.56-11.64-47.48-35.66-47.48-27.65,0-42.2,26.01-42.2,61.31,0,52.03,27.83,80.77,77.86,74.95Z"/>
</svg>