<?xml version="1.0" encoding="UTF-8"?>
<svg id="Calque_1" data-name="Calque 1" xmlns="http://www.w3.org/2000/svg" viewBox="0 0 841.89 595.28">
  <defs>
    <style>
      .cls-1 {
        fill: #1d1d1b;
        stroke-width: 0px;
      }
    </style>
  </defs>
  <path class="cls-1" d="m526.33,398.74v6.37h-196.47c-5.09-2.91-8-7.82-8-13.1,0-8.73,6.55-12.55,12.37-12.55,16.74,0,5.82,16.55,50.75,16.55h55.12c-43.11-31.29-72.22-71.31-72.22-115.33,0-54.76,38.93-89.32,78.95-89.32,48.03,0,72.04,29.83,72.04,64.4,0,31.11-25.65,62.76-73.86,66.58v-1.09c20.19-8,31.29-33.65,31.29-62.58,0-30.74-10.37-58.03-34.02-58.03-22.38,0-38.02,22.01-38.02,62.4,0,64.58,65.49,98.78,122.06,135.71Z"/>
</svg>