<?xml version="1.0" encoding="UTF-8"?>
<svg id="Calque_1" data-name="Calque 1" xmlns="http://www.w3.org/2000/svg" viewBox="0 0 841.89 595.28">
  <defs>
    <style>
      .cls-1 {
        fill: #1d1d1b;
        stroke-width: 0px;
      }
    </style>
  </defs>
  <path class="cls-1" d="m397.48,202.09c0-17.65,10.55-25.29,23.47-25.29s23.47,7.64,23.47,25.29-10.55,25.29-23.47,25.29-23.47-7.64-23.47-25.29Zm0,90.41c0-17.65,10.55-25.29,23.47-25.29s23.47,7.64,23.47,25.29-10.55,25.29-23.47,25.29-23.47-7.64-23.47-25.29Zm0,90.59c0-17.65,10.55-25.29,23.47-25.29s23.47,7.64,23.47,25.29-10.55,25.29-23.47,25.29-23.47-7.64-23.47-25.29Z"/>
</svg>