<?xml version="1.0" encoding="UTF-8"?>
<svg id="Calque_1" data-name="Calque 1" xmlns="http://www.w3.org/2000/svg" viewBox="0 0 841.89 595.28">
  <defs>
    <style>
      .cls-1 {
        fill: #1d1d1b;
        stroke-width: 0px;
      }
    </style>
  </defs>
  <path class="cls-1" d="m607.56,494.07c.91,2.73,1.46,5.82,1.46,8.91,0,6.19-4.73,11.28-12.55,11.28-18.37,0-7.64-19.1-46.39-37.47l-12.92-6.19h-.18l-125.89-59.67c-8.91-4.18-19.28-5.82-29.11-5.82h-89.68c-5.09-2.91-8-7.82-8-13.1,0-8.73,6.55-12.55,12.37-12.55,16.74,0,5.82,16.55,50.75,16.55h34.56c11.82,0,21.83,1.46,31.29,6l28.38,13.46-30.56-122.97c-9.46-36.2-15.64-47.84-55.48-55.3v-2.18h95.69l42.93,205.38,101.33,47.84-.73-.18,12.73,6Z"/>
</svg>