<?xml version="1.0" encoding="UTF-8"?>
<svg id="Calque_1" data-name="Calque 1" xmlns="http://www.w3.org/2000/svg" viewBox="0 0 841.89 595.28">
  <defs>
    <style>
      .cls-1 {
        fill: #1d1d1b;
        stroke-width: 0px;
      }
    </style>
  </defs>
  <path class="cls-1" d="m473.67,396.01c79.5,0,100.78,33.47,100.78,67.49,0,20.74-11.46,54.39-61.67,54.39-53.48,0-77.5-39.84-97.51-105.69l-1.82-7.09h-130.8c-5.09-2.91-8-7.82-8-13.1,0-8.73,6.55-12.55,12.37-12.55,16.74,0,5.82,16.55,50.75,16.55h73.13l-24.01-89.32c-11.64-38.38-13.83-61.31-58.39-69.49v-2.18h97.51l32.56,161h15.1Zm66.22,71.13c0-24.01-11.46-62.03-60.94-62.03h-18.37c15.1,74.58,24.01,105.51,52.75,105.51,17.83,0,26.56-18.56,26.56-43.48Z"/>
</svg>