<?xml version="1.0" encoding="UTF-8"?>
<svg id="Calque_1" data-name="Calque 1" xmlns="http://www.w3.org/2000/svg" viewBox="0 0 841.89 595.28">
  <defs>
    <style>
      .cls-1 {
        fill: #1d1d1b;
        stroke-width: 0px;
      }
    </style>
  </defs>
  <path class="cls-1" d="m593.64,326.34c0,38.75-20.01,66.76-54.03,78.77h-237.4c-32.93-11.64-52.21-44.57-52.21-86.05,0-53.67,42.93-87.87,86.96-87.87,41.66,0,74.95,23.1,93.87,68.4,18.37-34.38,47.48-51.85,83.86-51.85,40.02,0,78.95,30.56,78.95,78.59Zm-195.01,69.67c-.73-78.59-10.01-157.54-56.58-157.54-22.38,0-41.11,25.1-41.11,70.58,0,50.75,23.47,86.96,68.58,86.96h29.11Zm86.41,0c35.47,0,57.67-36.02,57.67-86.96,0-34.93-16.19-54.03-35.47-54.03-46.03,0-57.67,70.4-58.58,140.98h36.38Z"/>
</svg>