<?xml version="1.0" encoding="UTF-8"?>
<svg id="Calque_1" data-name="Calque 1" xmlns="http://www.w3.org/2000/svg" viewBox="0 0 841.89 595.28">
  <defs>
    <style>
      .cls-1 {
        fill: #1d1d1b;
        stroke-width: 0px;
      }
    </style>
  </defs>
  <path class="cls-1" d="m548.62,402.56v2.55h-117.7c34.38,21.28,40.2,71.67,23.83,99.51-27.47,8.37-55.3,11.46-102.24,11.46-36.56,0-67.13-5.28-84.77-11.1v-8c31.65,7.64,57.3,10.37,84.04,10.37,31.29,0,49.48-1.27,60.4-6,7.09-5.64,9.64-20.74,9.64-34.2,0-23.83-12.92-49.3-51.3-62.03h-59.12c-5.09-2.91-8-7.82-8-13.1,0-8.73,6.55-12.55,12.37-12.55,16.74,0,5.82,16.55,50.75,16.55h105.33l-7.28-95.5h31.83l52.21,102.05Z"/>
</svg>