<?xml version="1.0" encoding="UTF-8"?>
<svg id="Calque_1" data-name="Calque 1" xmlns="http://www.w3.org/2000/svg" viewBox="0 0 841.89 595.28">
  <defs>
    <style>
      .cls-1 {
        fill: #1d1d1b;
        stroke-width: 0px;
      }
    </style>
  </defs>
  <path class="cls-1" d="m555.47,235.02c-34.02,42.21-63.31,89.32-88.59,141.71,3.64,9.28,7.09,18.92,10.37,28.38h-176.46c-5.09-2.91-8-7.82-8-13.1,0-8.73,6.55-12.55,12.37-12.55,16.74,0,5.82,16.55,50.75,16.55h56.03c2.36-6.55,4.73-12.92,7.28-19.28-25.29-52.39-54.58-99.51-88.59-141.71h53.3c20.19,28.56,46.93,67.49,59.12,104.96,12.19-37.47,38.75-76.4,59.12-104.96h53.3Z"/>
</svg>