<?xml version="1.0" encoding="UTF-8"?>
<svg id="Calque_1" data-name="Calque 1" xmlns="http://www.w3.org/2000/svg" viewBox="0 0 841.89 595.28">
  <defs>
    <style>
      .cls-1 {
        fill: #1d1d1b;
        stroke-width: 0px;
      }
    </style>
  </defs>
  <path class="cls-1" d="m573.76,324.16c0,43.3-39.11,80.95-139.71,80.95h-152.08c1.27-72.4,38.93-133.71,101.51-159.9l-4.91-20.01c-8.91-36.2-15.65-47.84-55.48-55.3v-2.18h92.05l13.83,65.31c8.37-1.09,16.92-1.64,25.83-1.64,66.76,0,118.97,38.57,118.97,92.78Zm-153.17,71.86l-33.84-137.71c-35.84,26.2-52.76,78.41-50.21,137.71h84.04Zm42.75-.91c44.39-5.82,59.49-36.38,59.49-72.58,0-43.11-21.83-82.04-78.95-82.04-4.55,0-8.91.18-13.1.73l32.56,153.9Z"/>
</svg>