<?xml version="1.0" encoding="UTF-8"?>
<svg id="Calque_1" data-name="Calque 1" xmlns="http://www.w3.org/2000/svg" viewBox="0 0 841.89 595.28">
  <defs>
    <style>
      .cls-1 {
        fill: #1d1d1b;
        stroke-width: 0px;
      }
    </style>
  </defs>
  <path class="cls-1" d="m335.17,325.43c0-17.65,10.55-25.29,23.47-25.29s23.47,7.64,23.47,25.29-10.55,25.29-23.47,25.29-23.47-7.64-23.47-25.29Zm62.22-59.12c0-17.65,10.55-25.29,23.47-25.29s23.47,7.64,23.47,25.29-10.55,25.29-23.47,25.29-23.47-7.64-23.47-25.29Zm0,118.06c0-17.65,10.55-25.29,23.47-25.29s23.47,7.64,23.47,25.29-10.55,25.29-23.47,25.29-23.47-7.64-23.47-25.29Zm62.4-58.94c0-17.65,10.55-25.29,23.47-25.29s23.47,7.64,23.47,25.29-10.55,25.29-23.47,25.29-23.47-7.64-23.47-25.29Z"/>
</svg>