<?xml version="1.0" encoding="UTF-8"?>
<svg id="Calque_1" data-name="Calque 1" xmlns="http://www.w3.org/2000/svg" viewBox="0 0 841.89 595.28">
  <defs>
    <style>
      .cls-1 {
        fill: #1d1d1b;
        stroke-width: 0px;
      }
    </style>
  </defs>
  <path class="cls-1" d="m426.49,314.7h79.5v10.92h-79.5v79.5h-10.91v-79.5h-79.68v-10.92h79.68v-79.68h10.91v79.68Zm-61.67-32.38c0-10.37,6-15.46,14.55-15.46s14.55,5.09,14.55,15.46-6,15.46-14.55,15.46-14.55-5.09-14.55-15.46Zm29.11,75.68c0,10.37-6,15.46-14.55,15.46s-14.55-5.09-14.55-15.46,6-15.46,14.55-15.46,14.55,5.09,14.55,15.46Zm54.57-75.68c0-10.37,6-15.46,14.55-15.46s14.55,5.09,14.55,15.46-6,15.46-14.55,15.46-14.55-5.09-14.55-15.46Zm29.11,75.68c0,10.37-6,15.46-14.55,15.46s-14.55-5.09-14.55-15.46,6-15.46,14.55-15.46,14.55,5.09,14.55,15.46Z"/>
</svg>