<?xml version="1.0" encoding="UTF-8"?>
<svg id="Calque_1" data-name="Calque 1" xmlns="http://www.w3.org/2000/svg" viewBox="0 0 841.89 595.28">
  <defs>
    <style>
      .cls-1 {
        fill: #1d1d1b;
        stroke-width: 0px;
      }
    </style>
  </defs>
  <path class="cls-1" d="m329.44,326.34v-10.73h67.85v10.73h-67.85Zm22.74-66.04l8.19-8.19,48.03,47.84-8.37,8.37-47.84-48.03Zm8.19,129.34l-8.19-8.19,47.84-48.03,8.37,8.37-48.03,47.84Zm54.76-160.27h11.64v67.85h-11.64v-67.85Zm11.64,183.01h-11.64v-67.85h11.64v67.85Zm54.76-160.27l8.19,8.19-47.84,48.03-8.37-8.37,48.03-47.84Zm8.19,129.34l-8.19,8.19-48.03-47.84,8.37-8.37,47.84,48.03Zm22.74-65.85v10.73h-67.85v-10.73h67.85Z"/>
</svg>